# xmcd
#
# Track frame offsets:
#	150
#	17020
#	25932
#	42472
#	56537
#	71780
#	89027
#	107795
#	132230
#	144365
#	155400
#	172180
#	181090
#	197680
#	211740
#	227045
#	243135
#	261915
#	286205
#	298355
#
# Disc length: 4127 seconds
#
# Revision: 0
# Processed by: cddbd v1.4PL0 Copyright (c) Steve Scherf et al.
# Submitted via: EasyCDDAExtractor 5.0.2.1
#
DISCID=2b101d14
DTITLE=Steve Waring - Il etait une chanson
DYEAR=1996
DGENRE=enfant
TTITLE0=Le roi Dagobert
TTITLE1=Il etait une berger
TTITLE2=A la claire fontaine
TTITLE3=Les crocodiles
TTITLE4=Le roi a fait batre tambour
TTITLE5=Cadet Rouselle
TTITLE6=La mere Michel
TTITLE7=Il etai un petit navire
TTITLE8=Chere Elise
TTITLE9=Au claire de la lune
TTITLE10=Le roi Dagobert
TTITLE11=Il etait une berger
TTITLE12=A la claire fontaine
TTITLE13=Les crocodiles
TTITLE14=Le roi a fait batre tambour
TTITLE15=Cadet Rouselle
TTITLE16=La mere Michel
TTITLE17=Il etai un petit navire
TTITLE18=Chere Elise
TTITLE19=Au claire de la lune
EXTD=
EXTT0=
EXTT1=
EXTT2=
EXTT3=
EXTT4=
EXTT5=
EXTT6=
EXTT7=
EXTT8=
EXTT9=
EXTT10=
EXTT11=
EXTT12=
EXTT13=
EXTT14=
EXTT15=
EXTT16=
EXTT17=
EXTT18=
EXTT19=
PLAYORDER=
